<svg width="30" height="30" viewBox="0 0 30 30" fill="none" xmlns="http://www.w3.org/2000/svg">
<rect width="30" height="30" fill="#E5E5E5"/>
<g id="Desktop" clip-path="url(#clip0_0_1)">
<rect width="1440" height="7834" transform="translate(-1178 -7684)" fill="white"/>
<g id="Frame">
<g id="Frame_2">
<path id="Rectangle" d="M-1178 -209H262V150H-1178V-209Z" fill="#F7F7F7"/>
<g id="Frame_3">
<g id="Frame_4">
<g id="Frame_5">
<g id="Frame_6">
<g id="Frame_7" clip-path="url(#clip1_0_1)">
<path id="Vector" d="M15.0067 8.2622C10.7478 8.2622 7.31251 11.2681 7.31251 14.9946C7.31251 18.7212 10.7478 21.727 15.0067 21.727C19.2656 21.727 22.7009 18.7212 22.7009 14.9946C22.7009 11.2681 19.2656 8.2622 15.0067 8.2622ZM15.0067 19.3716C12.2545 19.3716 10.0045 17.4087 10.0045 14.9946C10.0045 12.5806 12.2478 10.6177 15.0067 10.6177C17.7656 10.6177 20.0089 12.5806 20.0089 14.9946C20.0089 17.4087 17.7589 19.3716 15.0067 19.3716ZM24.8103 7.98681C24.8103 8.85986 24.0067 9.55713 23.0156 9.55713C22.0179 9.55713 21.221 8.854 21.221 7.98681C21.221 7.11963 22.0246 6.4165 23.0156 6.4165C24.0067 6.4165 24.8103 7.11963 24.8103 7.98681ZM29.9062 9.58056C29.7924 7.47705 29.2433 5.61377 27.4821 4.07861C25.7277 2.54346 23.5982 2.06299 21.1942 1.95752C18.7165 1.83447 11.2902 1.83447 8.81251 1.95752C6.41519 2.05713 4.28573 2.5376 2.52457 4.07275C0.76341 5.60791 0.220999 7.47119 0.100464 9.5747C-0.0401611 11.7427 -0.0401611 18.2407 0.100464 20.4087C0.214303 22.5122 0.76341 24.3755 2.52457 25.9106C4.28573 27.4458 6.4085 27.9263 8.81251 28.0317C11.2902 28.1548 18.7165 28.1548 21.1942 28.0317C23.5982 27.9321 25.7277 27.4516 27.4821 25.9106C29.2366 24.3755 29.7857 22.5122 29.9062 20.4087C30.0469 18.2407 30.0469 11.7485 29.9062 9.58056ZM26.7054 22.7349C26.183 23.8833 25.1719 24.7681 23.8527 25.2309C21.8772 25.9165 17.1897 25.7583 15.0067 25.7583C12.8237 25.7583 8.12948 25.9106 6.16073 25.2309C4.84823 24.7739 3.83707 23.8892 3.30805 22.7349C2.52457 21.0063 2.70537 16.9048 2.70537 14.9946C2.70537 13.0845 2.53127 8.97705 3.30805 7.25439C3.83037 6.10596 4.84153 5.22119 6.16073 4.7583C8.13617 4.07275 12.8237 4.23096 15.0067 4.23096C17.1897 4.23096 21.8839 4.07861 23.8527 4.7583C25.1652 5.21533 26.1763 6.1001 26.7054 7.25439C27.4888 8.98291 27.308 13.0845 27.308 14.9946C27.308 16.9048 27.4888 21.0122 26.7054 22.7349Z" fill="black"/>
</g>
</g>
</g>
</g>
</g>
</g>
</g>
</g>
<defs>
<clipPath id="clip0_0_1">
<rect width="1440" height="7834" fill="white" transform="translate(-1178 -7684)"/>
</clipPath>
<clipPath id="clip1_0_1">
<rect width="30" height="30" fill="white"/>
</clipPath>
</defs>
</svg>
